<?xml version="1.0" encoding="utf-8"?>
<!-- Generator: Adobe Illustrator 24.2.1, SVG Export Plug-In . SVG Version: 6.00 Build 0)  -->
<svg version="1.1" id="Layer_1" xmlns="http://www.w3.org/2000/svg" xmlns:xlink="http://www.w3.org/1999/xlink" x="0px" y="0px"
	 viewBox="0 0 512 512" style="enable-background:new 0 0 512 512;" xml:space="preserve">
<style type="text/css">
	.st0{fill:#222222;}
</style>
<g>
	<g>
		<path class="st0" d="M116.4,381.2h226.7l46.7,104.5h77.5L264.2,24.8h-17.5L44.1,485.7h87.1l23.4-57.8h150.7l11.1,24.8H170.5
			l-24.8,58.5H3.1L232,0h46.7l230.4,511.3L374.6,512l-46.7-106l-190.8-0.7l-25.6,61.5H79L116.4,381.2z M295.7,337.9l-40.3-87.8
			l-27.1,66.6h-28.5L255.4,183l80.4,177.8h-212L255.4,65.2l180,400.8h-30l-150-340.8l-89.3,213h129.6V337.9z"/>
	</g>
</g>
</svg>
